
CASCADE Topology V1, (c) Matra-Datavision
Locations 11
1
1.000000000000000 0.000000000000000 0.000000000000000 0.000000000000000 
0.000000000000000 1.000000000000000 0.000000000000000 0.000000000000000 
0.000000000000000 0.000000000000000 1.000000000000000 0.000000000000000 
1
1.000000000000000 0.000000000000000 0.000000000000000 -9.000000000000000 
0.000000000000000 1.000000000000000 0.000000000000000 -0.000000000000000 
0.000000000000000 0.000000000000000 1.000000000000000 -0.000000000000000 
1
1.000000000000000 0.000000000000000 0.000000000000000 18.000000000000000 
0.000000000000000 1.000000000000000 0.000000000000000 0.000000000000000 
0.000000000000000 0.000000000000000 1.000000000000000 0.000000000000000 
2  2 1 3 1 0
1
1.000000000000000 0.000000000000000 0.000000000000000 0.000000000000000 
0.000000000000000 1.000000000000000 0.000000000000000 0.000000000000000 
0.000000000000000 0.000000000000000 1.000000000000000 0.000000000000000 
1
0.000000000000000 0.000000000000000 1.000000000000000 0.000000000000000 
1.000000000000000 0.000000000000000 0.000000000000000 0.000000000000000 
0.000000000000000 1.000000000000000 0.000000000000000 0.000000000000000 
2  5 1 6 1 2 1 0
2  2 -1 6 -1 5 -1 0
2  3 -1 2 -1 6 -1 5 -1 0
2  6 -1 5 -1 0
2  5 1 6 1 2 1 3 1 0
Curve2ds 32
1 0.25268025514207898 0.00000000000000000 0.00000000000000000 -1.00000000000000000 
1 3.39427290873187193 0.00000000000000000 0.00000000000000000 -1.00000000000000000 
1 1.57079632679489589 0.00000000000000000 0.00000000000000000 -1.00000000000000000 
1 0.00000000000000000 -0.00000000000000000 0.00000000000000000 -1.00000000000000000 
1 0.00000000000000000 0.00000000000000000 1.00000000000000000 0.00000000000000000 
1 0.00000000000000000 -18.00000000000000000 1.00000000000000000 0.00000000000000000 
1 1.50000000000000000 0.00000000000000000 0.00000000000000000 -1.00000000000000000 
1 0.00000000000000000 0.00000000000000000 0.00000000000000000 -1.00000000000000000 
1 0.00000000000000000 -0.00000000000000000 1.00000000000000000 0.00000000000000000 
1 0.00000000000000000 -18.00000000000000000 1.00000000000000000 0.00000000000000000 
1 0.00000000000000000 0.00000000000000000 0.00000000000000000 -1.00000000000000000 
1 1.00000000000000000 0.00000000000000000 0.00000000000000000 -1.00000000000000000 
1 0.00000000000000000 0.00000000000000000 1.00000000000000000 0.00000000000000000 
1 0.00000000000000000 -18.00000000000000000 1.00000000000000000 0.00000000000000000 
1 0.00000000000000000 0.00000000000000000 0.00000000000000000 -1.00000000000000000 
1 14.48000000000000043 0.00000000000000000 0.00000000000000000 -1.00000000000000000 
1 0.00000000000000000 0.00000000000000000 1.00000000000000000 0.00000000000000000 
1 0.00000000000000000 -18.00000000000000000 1.00000000000000000 0.00000000000000000 
1 0.60033324079214501 0.00000000000000000 0.00000000000000000 -1.00000000000000000 
1 0.00000000000000000 0.00000000000000000 0.00000000000000000 -1.00000000000000000 
1 0.00000000000000000 0.00000000000000000 1.00000000000000000 0.00000000000000000 
1 0.00000000000000000 -18.00000000000000000 1.00000000000000000 0.00000000000000000 
1 0.39999999999999997 0.00000000000000000 0.00000000000000000 -1.00000000000000000 
1 13.11270166537925874 0.00000000000000000 0.00000000000000000 -1.00000000000000000 
1 0.00000000000000000 0.00000000000000000 1.00000000000000000 0.00000000000000000 
1 0.00000000000000000 -18.00000000000000000 1.00000000000000000 0.00000000000000000 
1 4.71238898038468879 0.00000000000000000 0.00000000000000000 -1.00000000000000000 
1 0.00000000000000000 0.00000000000000000 0.00000000000000000 -1.00000000000000000 
1 0.00000000000000000 0.00000000000000000 1.00000000000000000 0.00000000000000000 
1 0.00000000000000000 -18.00000000000000000 1.00000000000000000 0.00000000000000000 
1 0.00000000000000000 0.00000000000000000 1.00000000000000000 0.00000000000000000 
1 0.00000000000000000 -18.00000000000000000 1.00000000000000000 0.00000000000000000 
Curves 16
1 -9.00000000000000000 -5.80635083268962937 0.84999999999999998 1.00000000000000000 0.00000000000000000 0.00000000000000000 
1 -9.00000000000000000 -6.00000000000000000 1.00000000000000000 1.00000000000000000 0.00000000000000000 0.00000000000000000 
2 -6.00000000000000000 0.79999999999999993 0.00000000000000000 0.00000000000000000 0.00000000000000000 1.00000000000000000 1.00000000000000000 0.00000000000000000 0.00000000000000000 0.00000000000000000 1.00000000000000000 0.00000000000000000 0.20000000000000001
1 -9.00000000000000000 -7.50000000000000000 1.00000000000000000 1.00000000000000000 0.00000000000000000 0.00000000000000000 
1 -6.00000000000000000 1.00000000000000000 0.00000000000000000 -1.00000000000000000 0.00000000000000000 0.00000000000000000 
1 -9.00000000000000000 -7.50000000000000000 0.00000000000000000 1.00000000000000000 0.00000000000000000 0.00000000000000000 
1 -7.50000000000000000 1.00000000000000000 0.00000000000000000 0.00000000000000000 -1.00000000000000000 0.00000000000000000 
1 -9.00000000000000000 6.98000000000000043 0.00000000000000000 1.00000000000000000 0.00000000000000000 0.00000000000000000 
1 -7.50000000000000000 0.00000000000000000 0.00000000000000000 1.00000000000000000 0.00000000000000000 0.00000000000000000 
1 -9.00000000000000000 7.50000000000000000 0.29999999999999999 1.00000000000000000 0.00000000000000000 0.00000000000000000 
1 6.98000000000000043 0.00000000000000000 0.00000000000000000 0.86618558604860030 0.49972245348957745 0.00000000000000000 
1 -9.00000000000000000 7.50000000000000000 0.69999999999999996 1.00000000000000000 0.00000000000000000 0.00000000000000000 
1 7.50000000000000000 0.29999999999999999 0.00000000000000000 0.00000000000000000 1.00000000000000000 0.00000000000000000 
1 -9.00000000000000000 -5.61270166537925963 0.69999999999999996 1.00000000000000000 0.00000000000000000 0.00000000000000000 
1 -5.61270166537925963 0.69999999999999996 0.00000000000000000 1.00000000000000000 0.00000000000000000 0.00000000000000000 
2 -5.61270166537925963 0.90000000000000002 0.00000000000000000 0.00000000000000000 0.00000000000000000 1.00000000000000000 1.00000000000000000 0.00000000000000000 0.00000000000000000 0.00000000000000000 1.00000000000000000 0.00000000000000000 0.20000000000000001
Polygon3D 0
PolygonOnTriangulations 0
Surfaces 9
2 -9.00000000000000000 -6.00000000000000000 0.79999999999999993 -1.00000000000000000 -0.00000000000000000 -0.00000000000000000 0.00000000000000000 1.00000000000000000 0.00000000000000000 0.00000000000000000 0.00000000000000000 1.00000000000000000 0.20000000000000001
2 -9.00000000000000000 -5.61270166537925963 0.90000000000000002 -1.00000000000000000 -0.00000000000000000 -0.00000000000000000 0.00000000000000000 1.00000000000000000 0.00000000000000000 0.00000000000000000 0.00000000000000000 1.00000000000000000 0.20000000000000001
1 -9.00000000000000000 -6.00000000000000000 1.00000000000000000 0.00000000000000000 0.00000000000000000 -1.00000000000000000 0.00000000000000000 -1.00000000000000000 0.00000000000000000 -1.00000000000000000 -0.00000000000000000 -0.00000000000000000 
1 -9.00000000000000000 -7.50000000000000000 1.00000000000000000 -0.00000000000000000 1.00000000000000000 0.00000000000000000 0.00000000000000000 0.00000000000000000 -1.00000000000000000 -1.00000000000000000 0.00000000000000000 -0.00000000000000000 
1 -9.00000000000000000 -7.50000000000000000 0.00000000000000000 0.00000000000000000 0.00000000000000000 1.00000000000000000 0.00000000000000000 1.00000000000000000 0.00000000000000000 -1.00000000000000000 0.00000000000000000 0.00000000000000000 
1 -9.00000000000000000 6.98000000000000043 0.00000000000000000 0.00000000000000000 -0.49972245348957745 0.86618558604860030 0.00000000000000000 0.86618558604860030 0.49972245348957745 -1.00000000000000000 0.00000000000000000 0.00000000000000000 
1 -9.00000000000000000 7.50000000000000000 0.29999999999999999 0.00000000000000000 -1.00000000000000000 0.00000000000000000 0.00000000000000000 0.00000000000000000 1.00000000000000000 -1.00000000000000000 0.00000000000000000 0.00000000000000000 
1 -9.00000000000000000 -5.61270166537925963 0.69999999999999996 0.00000000000000000 0.00000000000000000 1.00000000000000000 0.00000000000000000 1.00000000000000000 0.00000000000000000 -1.00000000000000000 0.00000000000000000 0.00000000000000000 
1 -8.99999999999999822 -0.14886140629932149 0.37681823789270613 1.00000000000000000 0.00000000000000000 0.00000000000000000 -0.00000000000000000 0.00000000000000000 1.00000000000000000 0.00000000000000000 -1.00000000000000000 0.00000000000000000 
Triangulations 0

TShapes 44
Ve
0.000000100000000
0.000000000000000 -5.806350832689629 0.850000000000000
0 0

0101101
*
Ed
 0.000000100000000 1 1 0
1  1 0 0.000000000000000 18.000000000000000
2  1 1 0 0.000000000000000 18.000000000000000
2  2 2 0 0.000000000000000 18.000000000000000
4 C1 1 0 2 0
0

0101000
+44 2 -44 4 *
Ve
0.000000100000000
0.000000000000000 -6.000000000000000 1.000000000000000
0 0

0101101
*
Ed
 0.000000100000000 1 1 0
1  2 0 0.000000000000000 18.000000000000000
2  3 1 0 0.000000000000000 18.000000000000000
4 G1 1 0 3 0
2  4 3 0 0.000000000000000 18.000000000000000
0

0101000
+42 2 -42 4 *
Ed
 0.000000100000000 1 1 0
1  3 0 0.252680255142079 1.570796326794896
2  5 1 8 0.252680255142079 1.570796326794896
2  6 1 9 0.252680255142079 1.570796326794896
0

0101000
+44 10 -42 10 *
Wi

0101100
+43 0 -41 0 -40 7 +40 11 *
Fa
0  0.000000100000000 1 0

0101000
+39 0 *
Ve
0.000000100000000
0.000000000000000 -7.500000000000000 1.000000000000000
0 0

0101101
*
Ed
 0.000000100000000 1 1 0
1  4 0 0.000000000000000 18.000000000000000
2  7 3 0 0.000000000000000 18.000000000000000
2  8 4 0 0.000000000000000 18.000000000000000
0

0101000
+37 2 -37 4 *
Ed
 0.000000100000000 1 1 0
1  5 0 0.000000000000000 1.500000000000000
2  9 3 8 0.000000000000000 1.500000000000000
2  10 3 9 0.000000000000000 1.500000000000000
0

0101000
+42 10 -37 10 *
Wi

0101100
+41 0 -36 0 -35 7 +35 11 *
Fa
0  0.000000100000000 3 0

0101000
+34 0 *
Ve
0.000000100000000
0.000000000000000 -7.500000000000000 0.000000000000000
0 0

0101101
*
Ed
 0.000000100000000 1 1 0
1  6 0 0.000000000000000 18.000000000000000
2  11 5 0 0.000000000000000 18.000000000000000
2  12 4 0 0.000000000000000 18.000000000000000
0

0101000
+32 2 -32 4 *
Ed
 0.000000100000000 1 1 0
1  7 0 0.000000000000000 1.000000000000000
2  13 4 8 0.000000000000000 1.000000000000000
2  14 4 9 0.000000000000000 1.000000000000000
0

0101000
+37 10 -32 10 *
Wi

0101100
+36 0 -31 0 -30 7 +30 11 *
Fa
0  0.000000100000000 4 0

0101000
+29 0 *
Ve
0.000000100000000
0.000000000000000 6.980000000000000 0.000000000000000
0 0

0101101
*
Ed
 0.000000100000000 1 1 0
1  8 0 0.000000000000000 18.000000000000000
2  15 6 0 0.000000000000000 18.000000000000000
2  16 5 0 0.000000000000000 18.000000000000000
0

0101000
+27 2 -27 4 *
Ed
 0.000000100000000 1 1 0
1  9 0 0.000000000000000 14.480000000000000
2  17 5 8 0.000000000000000 14.480000000000000
2  18 5 9 0.000000000000000 14.480000000000000
0

0101000
+32 10 -27 10 *
Wi

0101100
+31 0 -26 0 -25 7 +25 11 *
Fa
0  0.000000100000000 5 0

0101000
+24 0 *
Ve
0.000000100000000
0.000000000000000 7.500000000000000 0.300000000000000
0 0

0101101
*
Ed
 0.000000100000000 1 1 0
1  10 0 0.000000000000000 18.000000000000000
2  19 6 0 0.000000000000000 18.000000000000000
2  20 7 0 0.000000000000000 18.000000000000000
0

0101000
+22 2 -22 4 *
Ed
 0.000000100000000 1 1 0
1  11 0 0.000000000000000 0.600333240792145
2  21 6 8 0.000000000000000 0.600333240792145
2  22 6 9 0.000000000000000 0.600333240792145
0

0101000
+27 10 -22 10 *
Wi

0101100
+26 0 -21 0 -20 7 +20 11 *
Fa
0  0.000000100000000 6 0

0101000
+19 0 *
Ve
0.000000100000000
0.000000000000000 7.500000000000000 0.700000000000000
0 0

0101101
*
Ed
 0.000000100000000 1 1 0
1  12 0 0.000000000000000 18.000000000000000
2  23 7 0 0.000000000000000 18.000000000000000
2  24 8 0 0.000000000000000 18.000000000000000
0

0101000
+17 2 -17 4 *
Ed
 0.000000100000000 1 1 0
1  13 0 0.000000000000000 0.400000000000000
2  25 7 8 0.000000000000000 0.400000000000000
2  26 7 9 0.000000000000000 0.400000000000000
0

0101000
+22 10 -17 10 *
Wi

0101100
+21 0 -16 0 -15 7 +15 11 *
Fa
0  0.000000100000000 7 0

0101000
+14 0 *
Ve
0.000000100000000
0.000000000000000 -5.612701665379260 0.700000000000000
0 0

0101101
*
Ed
 0.000000100000000 1 1 0
1  14 0 0.000000000000000 18.000000000000000
2  27 2 0 0.000000000000000 18.000000000000000
4 G1 8 0 2 0
2  28 8 0 0.000000000000000 18.000000000000000
0

0101000
+12 2 -12 4 *
Ed
 0.000000100000000 1 1 0
1  15 0 0.000000000000000 13.112701665379259
2  29 8 8 0.000000000000000 13.112701665379259
2  30 8 9 0.000000000000000 13.112701665379259
0

0101000
+12 10 -17 10 *
Wi

0101100
+11 0 -16 0 -10 7 +10 11 *
Fa
0  0.000000100000000 8 0

0101000
+9 0 *
Ed
 0.000000100000000 1 1 0
1  16 0 3.394272908731872 4.712388980384689
2  31 2 8 3.394272908731872 4.712388980384689
2  32 2 9 3.394272908731872 4.712388980384689
0

0101000
+44 10 -12 10 *
Wi

0101100
+43 0 -11 0 -7 7 +7 11 *
Fa
0  0.000000100000000 2 0

0101000
+6 0 *
Wi

0101100
+40 0 +35 0 +30 0 +25 0 +20 0 +15 0 -10 0 -7 0 *
Fa
0  0.000000100000000 9 0

0101000
+4 7 *
Sh

0101100
+38 0 +33 0 +28 0 +23 0 +18 0 +13 0 -8 0 -5 0 +3 0 -3 3 
*
So

1100000
-2 0 *

+1 1 