
CASCADE Topology V1, (c) Matra-Datavision
Locations 9
1
1.000000000000000 0.000000000000000 0.000000000000000 0.000000000000000 
0.000000000000000 1.000000000000000 0.000000000000000 0.000000000000000 
0.000000000000000 0.000000000000000 1.000000000000000 0.000000000000000 
1
1.000000000000000 0.000000000000000 0.000000000000000 0.000000000000000 
0.000000000000000 1.000000000000000 0.000000000000000 0.000000000000000 
0.000000000000000 0.000000000000000 1.000000000000000 0.000000000000000 
1
0.000000000000000 0.000000000000000 1.000000000000000 0.000000000000000 
1.000000000000000 0.000000000000000 0.000000000000000 0.000000000000000 
0.000000000000000 1.000000000000000 0.000000000000000 0.000000000000000 
1
0.000000000000000 1.000000000000000 0.000000000000000 30.000000000000000 
-1.000000000000000 0.000000000000000 0.000000000000000 -29.999999999999996 
0.000000000000000 0.000000000000000 1.000000000000000 0.000000000000000 
2  2 1 3 1 4 1 0
1
-1.000000000000000 -0.000000000000000 0.000000000000000 -0.000000000000004 
0.000000000000000 -1.000000000000000 0.000000000000000 -60.000000000000000 
0.000000000000000 0.000000000000000 1.000000000000000 0.000000000000000 
2  2 1 3 1 4 1 6 1 0
2  4 -1 3 -1 2 -1 0
2  6 -1 4 -1 3 -1 2 -1 0
Curve2ds 36
1 0.00000000000000000 0.39236858060340069 1.00000000000000000 0.00000000000000000 
1 0.00000000000000000 0.00000000000000051 1.00000000000000000 0.00000000000000000 
1 0.00000000000000000 1.57079632679489656 1.00000000000000000 0.00000000000000000 
2 0.00000000000000000 0.00000000000000000 -1.00000000000000000 0.00000000000000000 0.00000000000000000 1.00000000000000000 24.00000000000000000
1 0.00000000000000000 0.00000000000000133 0.00000000000000000 1.00000000000000000 
1 3.14159265358979312 0.00000000000000133 0.00000000000000000 1.00000000000000000 
2 0.00000000000000000 0.00000000000000000 -1.00000000000000000 0.00000000000000000 0.00000000000000000 1.00000000000000000 22.50000000000000000
1 0.00000000000000000 0.00000000000000000 1.00000000000000000 0.00000000000000000 
1 -22.50000000000000000 0.00000000000000000 -1.00000000000000000 -0.00000000000000005 
1 22.50000000000000000 0.00000000000000355 1.00000000000000000 0.00000000000000017 
1 0.00000000000000000 1.00000000000000000 1.00000000000000000 0.00000000000000000 
2 0.00000000000000000 0.00000000000000000 -1.00000000000000000 0.00000000000000000 0.00000000000000000 1.00000000000000000 22.50000000000000000
1 0.00000000000000000 0.00000000000000000 0.00000000000000000 1.00000000000000000 
1 3.14159265358979312 0.00000000000000000 0.00000000000000000 1.00000000000000000 
2 0.00000000000000000 0.00000000000000000 -1.00000000000000000 -0.00000000000000009 -0.00000000000000009 1.00000000000000000 37.50000000000000000
2 0.00000000000000000 0.00000000000000000 -1.00000000000000000 0.00000000000000000 0.00000000000000000 1.00000000000000000 37.50000000000000000
1 -22.50000000000000000 0.00000000000000000 -1.00000000000000000 -0.00000000000000005 
1 22.50000000000000000 0.00000000000000355 1.00000000000000000 0.00000000000000017 
2 0.00000000000000000 0.00000000000000000 -1.00000000000000000 0.00000000000000000 0.00000000000000000 1.00000000000000000 38.75999999999999801
1 0.00000000000000000 0.69999999999999996 1.00000000000000000 0.00000000000000000 
1 -37.50000000000000000 0.00000000000000000 -1.00000000000000000 0.00000000000000002 
1 37.50000000000000000 0.00000000000000355 1.00000000000000000 0.00000000000000011 
1 0.00000000000000000 0.00000000000000000 1.00000000000000000 0.00000000000000000 
2 0.00000000000000000 0.00000000000000000 -1.00000000000000000 -0.00000000000000009 -0.00000000000000009 1.00000000000000000 38.75999999999999801
1 0.00000000000000000 0.00000000000000000 0.00000000000000000 1.00000000000000000 
1 3.14159265358979312 0.00000000000000000 0.00000000000000000 1.00000000000000000 
2 0.00000000000000000 0.00000000000000000 -1.00000000000000000 0.00000000000000000 0.00000000000000000 1.00000000000000000 24.39151499999999828
1 0.00000000000000000 4.71238898038468967 1.00000000000000000 0.00000000000000000 
1 -24.39151499999999828 0.00000000000000000 -1.00000000000000000 -0.00000000000000003 
1 24.39151499999999828 0.00000000000000355 1.00000000000000000 0.00000000000000016 
1 0.00000000000000000 3.53396123419319430 1.00000000000000000 0.00000000000000000 
1 0.00000000000000000 0.05730615346536958 1.00000000000000000 0.00000000000000000 
1 0.00000000000000000 0.00000000000000133 0.00000000000000000 1.00000000000000000 
1 3.14159265358979312 0.00000000000000133 0.00000000000000000 1.00000000000000000 
1 0.00000000000000000 0.00000000000000000 0.00000000000000000 1.00000000000000000 
1 3.14159265358979312 0.00000000000000000 0.00000000000000000 1.00000000000000000 
Curves 18
2 0.00000000000000000 -30.00000000000000000 0.87647561365455307 0.00000000000000000 0.00000000000000000 1.00000000000000000 1.00000000000000000 0.00000000000000015 -0.00000000000000000 -0.00000000000000015 1.00000000000000000 0.00000000000000000 24.18480119186888544
2 0.00000000000000000 -30.00000000000000000 1.00000000000000000 0.00000000000000000 0.00000000000000000 1.00000000000000000 1.00000000000000000 0.00000000000000015 -0.00000000000000000 -0.00000000000000015 1.00000000000000000 0.00000000000000000 24.00000000000000000
2 -6.00000000000000000 0.79999999999999993 0.00000000000000000 0.00000000000000000 0.00000000000000000 1.00000000000000000 1.00000000000000000 0.00000000000000000 -0.00000000000000000 -0.00000000000000000 1.00000000000000000 0.00000000000000000 0.20000000000000001
2 0.00000000000000000 -30.00000000000000000 1.00000000000000000 0.00000000000000000 0.00000000000000000 1.00000000000000000 1.00000000000000000 0.00000000000000016 -0.00000000000000000 -0.00000000000000016 1.00000000000000000 0.00000000000000000 22.50000000000000000
1 -7.50000000000000000 1.00000000000000000 0.00000000000000000 1.00000000000000000 0.00000000000000000 0.00000000000000000 
2 0.00000000000000000 -30.00000000000000000 0.00000000000000000 0.00000000000000000 0.00000000000000000 1.00000000000000000 1.00000000000000000 0.00000000000000016 -0.00000000000000000 -0.00000000000000016 1.00000000000000000 0.00000000000000000 22.50000000000000000
1 -7.50000000000000000 1.00000000000000000 0.00000000000000000 0.00000000000000000 -1.00000000000000000 0.00000000000000000 
2 0.00000000000000000 -30.00000000000000000 0.00000000000000000 0.00000000000000000 0.00000000000000000 1.00000000000000000 1.00000000000000000 0.00000000000000009 -0.00000000000000000 -0.00000000000000009 1.00000000000000000 0.00000000000000000 37.50000000000000000
1 -7.50000000000000000 -0.00000000000000000 0.00000000000000000 1.00000000000000000 0.00000000000000000 0.00000000000000000 
2 0.00000000000000000 -30.00000000000000000 0.00000000000000000 0.00000000000000000 0.00000000000000000 1.00000000000000000 1.00000000000000000 0.00000000000000009 -0.00000000000000000 -0.00000000000000009 1.00000000000000000 0.00000000000000000 38.75999999999999801
1 7.50000000000000000 0.00000000000000000 0.00000000000000000 1.00000000000000000 0.00000000000000000 0.00000000000000000 
2 0.00000000000000000 -30.00000000000000000 0.69999999999999996 0.00000000000000000 0.00000000000000000 1.00000000000000000 1.00000000000000000 0.00000000000000009 -0.00000000000000000 -0.00000000000000009 1.00000000000000000 0.00000000000000000 38.75999999999999801
1 8.75999999999999979 0.69999999999999996 0.00000000000000000 0.00000000000000000 -1.00000000000000000 0.00000000000000000 
2 0.00000000000000000 -30.00000000000000000 0.69999999999999996 0.00000000000000000 0.00000000000000000 1.00000000000000000 1.00000000000000000 0.00000000000000015 -0.00000000000000000 -0.00000000000000015 1.00000000000000000 0.00000000000000000 24.39151499999999828
1 -5.60848499999999994 0.69999999999999996 0.00000000000000000 1.00000000000000000 0.00000000000000000 0.00000000000000000 
2 0.00000000000000000 -30.00000000000000000 0.82352438634544678 0.00000000000000000 0.00000000000000000 1.00000000000000000 1.00000000000000000 0.00000000000000015 -0.00000000000000000 -0.00000000000000015 1.00000000000000000 0.00000000000000000 24.20671380813111639
2 -5.60848499999999994 0.90000000000000002 0.00000000000000000 0.00000000000000000 0.00000000000000000 1.00000000000000000 1.00000000000000000 0.00000000000000000 -0.00000000000000000 -0.00000000000000000 1.00000000000000000 0.00000000000000000 0.20000000000000001
1 -5.81519880813111545 0.87647561365455362 0.00000000000000000 0.38237806827275383 -0.92400595934441743 0.00000000000000000 
Polygon3D 0
PolygonOnTriangulations 0
Surfaces 10
5 0.00000000000000000 -30.00000000000000000 0.79999999999999993 0.00000000000000000 0.00000000000000000 1.00000000000000000 1.00000000000000000 0.00000000000000015 -0.00000000000000000 -0.00000000000000015 1.00000000000000000 0.00000000000000000 24.00000000000000000 0.20000000000000001
3 0.00000000000000000 -30.00000000000000000 0.87647561365455362 -0.00000000000000000 -0.00000000000000000 -1.00000000000000000 1.00000000000000000 0.00000000000000015 -0.00000000000000000 -0.00000000000000015 1.00000000000000000 -0.00000000000000000 24.18480119186888544
0.39236858060338875
1 0.00000000000000000 -30.00000000000000000 1.00000000000000000 0.00000000000000000 0.00000000000000000 1.00000000000000000 -1.00000000000000000 -0.00000000000000016 0.00000000000000000 -0.00000000000000016 1.00000000000000000 0.00000000000000000 
2 0.00000000000000000 -30.00000000000000000 1.00000000000000000 -0.00000000000000000 -0.00000000000000000 -1.00000000000000000 1.00000000000000000 0.00000000000000016 -0.00000000000000000 -0.00000000000000016 1.00000000000000000 -0.00000000000000000 22.50000000000000000
1 0.00000000000000000 -30.00000000000000000 -0.00000000000000000 0.00000000000000000 0.00000000000000000 1.00000000000000000 -1.00000000000000000 -0.00000000000000016 0.00000000000000000 -0.00000000000000016 1.00000000000000000 0.00000000000000000 
1 0.00000000000000000 -30.00000000000000000 0.00000000000000000 0.00000000000000000 0.00000000000000000 1.00000000000000000 -1.00000000000000000 -0.00000000000000009 0.00000000000000000 -0.00000000000000009 1.00000000000000000 0.00000000000000000 
2 0.00000000000000000 -30.00000000000000000 0.69999999999999996 -0.00000000000000000 -0.00000000000000000 -1.00000000000000000 1.00000000000000000 0.00000000000000009 -0.00000000000000000 -0.00000000000000009 1.00000000000000000 -0.00000000000000000 38.75999999999999801
1 0.00000000000000000 -30.00000000000000000 0.69999999999999996 0.00000000000000000 0.00000000000000000 1.00000000000000000 -1.00000000000000000 -0.00000000000000015 0.00000000000000000 -0.00000000000000015 1.00000000000000000 0.00000000000000000 
5 0.00000000000000000 -30.00000000000000000 0.90000000000000002 0.00000000000000000 0.00000000000000000 1.00000000000000000 1.00000000000000000 0.00000000000000015 -0.00000000000000000 -0.00000000000000015 1.00000000000000000 0.00000000000000000 24.39151499999999828 0.20000000000000001
1 30.53388133751306199 -29.99999999999998934 0.37112688875118038 0.00000000000000000 1.00000000000000000 -0.00000000000000000 0.00000000000000000 0.00000000000000000 1.00000000000000000 1.00000000000000000 -0.00000000000000000 0.00000000000000000 
Triangulations 0

TShapes 49
Ve
0.000000100000001
-5.815198808131116 0.876475613654553 0.000000000000000
0 0

0101101
*
Ed
 0.000000100000001 1 1 0
1  1 0 0.000000000000000 3.141592653589793
2  1 1 0 0.000000000000000 3.141592653589793
2  2 2 0 0.000000000000000 3.141592653589793
4 G1 1 0 2 0
0

0101000
+49 5 -49 7 *
Ve
0.000000100000000
-6.000000000000000 1.000000000000000 0.000000000000000
0 0

0101101
*
Ed
 0.000000100000000 1 1 0
1  2 0 0.000000000000000 3.141592653589793
2  3 1 0 0.000000000000000 3.141592653589793
2  4 3 0 0.000000000000000 3.141592653589793
4 G1 1 0 3 0
0

0101000
+47 5 -47 7 *
Ed
 0.000000100000000 1 1 0
1  3 0 0.392368580603399 1.570796326794896
2  5 1 8 0.392368580603399 1.570796326794896
2  6 1 9 0.392368580603399 1.570796326794896
0

0101000
+49 0 -47 0 *
Wi

0101100
+48 0 -46 0 -45 5 +45 7 *
Fa
0  0.000000100000000 1 0

0101000
+44 0 *
Ve
0.000000100000000
-7.500000000000000 1.000000000000000 0.000000000000000
0 0

0101101
*
Ed
 0.000000100000000 1 1 0
1  4 0 0.000000000000000 3.141592653589793
2  7 3 0 0.000000000000000 3.141592653589793
2  8 4 0 0.000000000000000 3.141592653589793
0

0101000
+42 5 -42 7 *
Ed
 0.000000100000000 1 1 0
1  5 0 0.000000000000000 1.500000000000000
2  9 3 8 0.000000000000000 1.500000000000000
2  10 3 9 0.000000000000000 1.500000000000000
0

0101000
+42 0 -47 0 *
Wi

0101100
+41 0 -46 0 -40 5 +40 7 *
Fa
0  0.000000100000000 3 0

0101000
+39 0 *
Ve
0.000000100000000
-7.500000000000000 0.000000000000000 0.000000000000000
0 0

0101101
*
Ed
 0.000000100000000 1 1 0
1  6 0 0.000000000000000 3.141592653589793
2  11 4 0 0.000000000000000 3.141592653589793
2  12 5 0 0.000000000000000 3.141592653589793
0

0101000
+37 5 -37 7 *
Ed
 0.000000100000000 1 1 0
1  7 0 0.000000000000000 1.000000000000000
2  13 4 8 0.000000000000000 1.000000000000000
2  14 4 9 0.000000000000000 1.000000000000000
0

0101000
+42 0 -37 0 *
Wi

0101100
+41 0 -36 0 -35 5 +35 7 *
Fa
0  0.000000100000000 4 0

0101000
+34 0 *
Ve
0.000000100000000
7.500000000000000 0.000000000000000 0.000000000000000
0 0

0101101
*
Ed
 0.000000100000000 1 1 0
1  8 0 0.000000000000000 3.141592653589793
2  15 5 0 0.000000000000000 3.141592653589793
2  16 6 0 0.000000000000000 3.141592653589793
4 C2 5 0 6 0
0

0101000
+32 5 -32 7 *
Ed
 0.000000100000000 1 1 0
1  9 0 0.000000000000000 15.000000000000000
2  17 5 8 0.000000000000000 15.000000000000000
2  18 5 9 0.000000000000000 15.000000000000000
0

0101000
+37 0 -32 0 *
Wi

0101100
+36 0 -31 0 -30 5 +30 7 *
Fa
0  0.000000100000000 5 0

0101000
+29 0 *
Ve
0.000000100000000
8.760000000000000 0.000000000000000 0.000000000000000
0 0

0101101
*
Ed
 0.000000100000000 1 1 0
1  10 0 0.000000000000000 3.141592653589793
2  19 6 0 0.000000000000000 3.141592653589793
2  20 7 0 0.000000000000000 3.141592653589793
0

0101000
+27 5 -27 7 *
Ed
 0.000000100000000 1 1 0
1  11 0 0.000000000000000 1.260000000000000
2  21 6 8 0.000000000000000 1.260000000000000
2  22 6 9 0.000000000000000 1.260000000000000
0

0101000
+32 0 -27 0 *
Wi

0101100
+31 0 -26 0 -25 5 +25 7 *
Fa
0  0.000000100000000 6 0

0101000
+24 0 *
Ve
0.000000100000000
8.760000000000000 0.700000000000000 0.000000000000000
0 0

0101101
*
Ed
 0.000000100000000 1 1 0
1  12 0 0.000000000000000 3.141592653589793
2  23 7 0 0.000000000000000 3.141592653589793
2  24 8 0 0.000000000000000 3.141592653589793
0

0101000
+22 5 -22 7 *
Ed
 0.000000100000000 1 1 0
1  13 0 0.000000000000000 0.700000000000000
2  25 7 8 0.000000000000000 0.700000000000000
2  26 7 9 0.000000000000000 0.700000000000000
0

0101000
+22 0 -27 0 *
Wi

0101100
+21 0 -26 0 -20 5 +20 7 *
Fa
0  0.000000100000000 7 0

0101000
+19 0 *
Ve
0.000000100000000
-5.608485000000000 0.700000000000000 0.000000000000000
0 0

0101101
*
Ed
 0.000000100000000 1 1 0
1  14 0 0.000000000000000 3.141592653589793
2  27 8 0 0.000000000000000 3.141592653589793
2  28 9 0 0.000000000000000 3.141592653589793
4 G1 8 0 9 0
0

0101000
+17 5 -17 7 *
Ed
 0.000000100000000 1 1 0
1  15 0 0.000000000000000 14.368485000000000
2  29 8 8 0.000000000000000 14.368485000000000
2  30 8 9 0.000000000000000 14.368485000000000
0

0101000
+17 0 -22 0 *
Wi

0101100
+16 0 -21 0 -15 5 +15 7 *
Fa
0  0.000000100000000 8 0

0101000
+14 0 *
Ve
0.000000100000001
-5.793286191868884 0.823524386345447 0.000000000000000
0 0

0101101
*
Ed
 0.000000100000001 1 1 0
1  16 0 0.000000000000000 3.141592653589793
2  31 9 0 0.000000000000000 3.141592653589793
2  32 2 0 0.000000000000000 3.141592653589793
4 G1 9 0 2 0
0

0101000
+12 5 -12 7 *
Ed
 0.000000100000000 1 1 0
1  17 0 3.533961234193193 4.712388980384690
2  33 9 8 3.533961234193193 4.712388980384690
2  34 9 9 3.533961234193193 4.712388980384690
0

0101000
+12 0 -17 0 *
Wi

0101100
+11 0 -16 0 -10 5 +10 7 *
Fa
0  0.000000100000000 9 0

0101000
+9 0 *
Ed
 0.000000100000000 1 1 0
1  18 0 0.000000000000000 0.057306153465370
2  35 2 8 0.000000000000000 0.057306153465370
2  36 2 9 0.000000000000000 0.057306153465370
0

0101000
+49 0 -12 0 *
Wi

0101100
+48 0 -11 0 -7 5 +7 7 *
Fa
0  0.000000100000000 2 0

0101000
+6 0 *
Wi

0101100
+45 0 -40 0 +35 0 +30 0 +25 0 -20 0 -15 0 -10 0 -7 0 *
Fa
0  0.000000100000000 10 0

0101000
-4 5 *
Sh

0101100
-43 0 +38 0 -33 0 -28 0 -23 0 +18 0 +13 0 +8 0 +5 0 +3 0 
-3 6 *
So

1100000
-2 0 *

+1 1 